<svg width="21" height="16" viewBox="0 0 21 16" fill="none" xmlns="http://www.w3.org/2000/svg">
    <path
        d="M1.26933 0.0174389C1.22303 0.02948 1.12621 0.041522 1.05466 0.041522C0.983102 0.0445328 0.91786 0.0565748 0.911546 0.0746374C0.905232 0.0896893 0.879977 0.104742 0.856827 0.104742C0.835781 0.104742 0.816839 0.116784 0.816839 0.134847C0.816839 0.149899 0.793689 0.164951 0.764224 0.164951C0.73476 0.164951 0.71161 0.176993 0.71161 0.195056C0.71161 0.210109 0.692668 0.225161 0.669518 0.225161C0.646367 0.225161 0.627426 0.237203 0.627426 0.249245C0.627426 0.264297 0.602171 0.294401 0.570602 0.318485C0.50115 0.369663 0.273854 0.685761 0.214926 0.812201C0.153892 0.941651 0.0591857 1.26979 0.0591857 1.35108C0.0591857 1.3872 0.0486627 1.43236 0.0381398 1.44741C0.0255122 1.46547 0.01078 1.72437 0.00446627 2.0495C-0.0144751 3.03091 0.031826 13.3177 0.0570811 13.5013C0.0802316 13.6819 0.105487 13.9047 0.141265 14.2539C0.153892 14.3774 0.170729 14.5008 0.174938 14.5279C0.181252 14.555 0.195984 14.6694 0.208612 14.7838C0.219135 14.8982 0.238076 15.0728 0.250704 15.1721C0.261227 15.2715 0.280168 15.434 0.290691 15.5334C0.320155 15.8254 0.336992 15.9217 0.358038 15.9609C0.374875 15.991 2.44369 16 10.5737 16H20.7684L20.8505 15.9277C21.0104 15.7802 20.9999 16.1264 20.9999 11.2856V6.96258L20.9536 6.86926C20.8694 6.69766 20.7621 6.57724 20.6947 6.57724C20.6779 6.57724 20.6632 6.56219 20.6632 6.54714C20.6632 6.52908 20.6358 6.51703 20.6 6.51703C20.5663 6.51703 20.5369 6.50198 20.5369 6.48693C20.5369 6.46887 20.5179 6.45682 20.4948 6.45682C20.4716 6.45682 20.4527 6.44177 20.4527 6.42672C20.4527 6.40866 20.438 6.39662 20.4211 6.39662C20.4043 6.39662 20.3706 6.38156 20.3475 6.36651C20.3243 6.34845 20.2864 6.32135 20.2633 6.3063C20.2401 6.28824 20.2086 6.2762 20.1917 6.2762C20.1749 6.2762 20.1265 6.2491 20.0802 6.219C20.036 6.18588 19.9097 6.11062 19.8003 6.05041C19.6908 5.9902 19.5646 5.91494 19.5204 5.88183C19.4741 5.85172 19.4257 5.82463 19.4109 5.82463C19.3962 5.82463 19.3415 5.79452 19.291 5.76141C19.2426 5.72528 19.1773 5.68314 19.1478 5.66507C19.1184 5.65002 19.0784 5.62594 19.0595 5.61088C19.0384 5.59583 19.0026 5.58379 18.9795 5.58379C18.9563 5.58379 18.9374 5.56874 18.9374 5.55368C18.9374 5.53562 18.9184 5.52358 18.8953 5.52358C18.8721 5.52358 18.8532 5.50853 18.8532 5.49347C18.8532 5.47541 18.8343 5.46337 18.8132 5.46337C18.7901 5.46337 18.7311 5.43327 18.6806 5.40015C18.6322 5.36403 18.567 5.32188 18.5375 5.30382C18.508 5.28876 18.4681 5.26468 18.4491 5.24963C18.4281 5.23458 18.3965 5.22253 18.3797 5.22253C18.3628 5.22253 18.3481 5.20748 18.3481 5.19243C18.3481 5.17437 18.3249 5.16232 18.2955 5.16232C18.266 5.16232 18.2429 5.14727 18.2429 5.13222C18.2429 5.11416 18.2197 5.10211 18.1924 5.10211C18.1629 5.10211 18.1334 5.08706 18.1271 5.07201C18.1208 5.05395 18.0955 5.04191 18.0724 5.04191C18.0514 5.04191 18.0324 5.02685 18.0324 5.0118C18.0324 4.99374 18.0177 4.9817 18.0008 4.9817C17.984 4.9817 17.9524 4.96965 17.9314 4.9546C17.8914 4.9245 17.8535 4.90342 17.6431 4.78602C17.5631 4.74086 17.4747 4.69269 17.4494 4.67764C17.4221 4.66259 17.38 4.6385 17.3547 4.62345C17.2727 4.57829 17.1401 4.494 17.0769 4.45185C17.0433 4.42777 16.9991 4.40971 16.978 4.40971C16.957 4.40971 16.9338 4.39466 16.9275 4.3796C16.9212 4.36154 16.8959 4.3495 16.8728 4.3495C16.8517 4.3495 16.8328 4.33445 16.8328 4.31939C16.8328 4.30133 16.8181 4.28929 16.8012 4.28929C16.7844 4.28929 16.7507 4.27424 16.7276 4.25918C16.7044 4.24112 16.6665 4.21403 16.6434 4.19898C16.6202 4.18091 16.5866 4.16887 16.5697 4.16887C16.5529 4.16887 16.5382 4.15382 16.5382 4.13877C16.5382 4.1207 16.515 4.10866 16.4855 4.10866C16.4561 4.10866 16.4329 4.09361 16.4329 4.07856C16.4329 4.06049 16.4182 4.04845 16.4014 4.04845C16.3845 4.04845 16.3529 4.03641 16.3319 4.02136C16.313 4.00631 16.273 3.98222 16.2435 3.96717C16.1509 3.91298 16.0667 3.8618 16.0288 3.83471C16.0078 3.81966 15.9762 3.80761 15.9594 3.80761C15.9425 3.80761 15.9278 3.79256 15.9278 3.77751C15.9278 3.75945 15.9131 3.74741 15.8962 3.74741C15.8794 3.74741 15.8478 3.73536 15.8268 3.72031C15.7552 3.66612 15.6248 3.58785 15.4774 3.5156C15.3954 3.47345 15.2775 3.40722 15.2165 3.36809C15.1554 3.32895 15.1007 3.29584 15.0965 3.29584C15.0902 3.29584 15.0397 3.26874 14.985 3.23262C14.9302 3.19649 14.8671 3.16036 14.844 3.14531C14.8208 3.13327 14.7766 3.10919 14.745 3.08811C14.7114 3.07005 14.6651 3.04296 14.6398 3.0279C14.5598 2.98576 14.4672 2.92856 14.4293 2.90146C14.4083 2.88641 14.3767 2.87437 14.3599 2.87437C14.3431 2.87437 14.3283 2.85932 14.3283 2.84427C14.3283 2.8262 14.3136 2.81416 14.2968 2.81416C14.2799 2.81416 14.2484 2.80212 14.2273 2.78707C14.2084 2.77201 14.1642 2.74492 14.1284 2.72385C14.0947 2.70277 14.0484 2.67568 14.0295 2.66063C14.0084 2.64557 13.9769 2.63353 13.96 2.63353C13.9432 2.63353 13.9285 2.61848 13.9285 2.60343C13.9285 2.58537 13.9095 2.57332 13.8885 2.57332C13.8653 2.57332 13.8401 2.55827 13.8337 2.54322C13.8274 2.52516 13.8043 2.51311 13.7832 2.51311C13.7622 2.51311 13.718 2.49505 13.6843 2.47097C13.5875 2.40474 13.4844 2.34453 13.3707 2.28733C13.3139 2.25723 13.2129 2.20003 13.1498 2.15788C13.0193 2.0766 12.9098 2.00736 12.8404 1.96822C12.7183 1.89898 12.6741 1.87189 12.6404 1.8478C12.6194 1.83275 12.5836 1.82071 12.5605 1.82071C12.5373 1.82071 12.5184 1.80566 12.5184 1.7906C12.5184 1.77254 12.5036 1.7605 12.4868 1.7605C12.47 1.7605 12.4384 1.74846 12.4174 1.7334C12.3984 1.71835 12.3353 1.6762 12.2763 1.64008C12.2195 1.60395 12.1543 1.56181 12.1353 1.54675C12.1143 1.5317 12.0827 1.51966 12.0659 1.51966C12.0491 1.51966 12.0343 1.50762 12.0343 1.49558C12.0343 1.48053 11.988 1.45042 11.9291 1.42935C11.8723 1.40827 11.8239 1.37817 11.8239 1.36312C11.8239 1.35108 11.8007 1.33903 11.7734 1.33903C11.7439 1.33903 11.7144 1.32398 11.7081 1.30893C11.7018 1.29086 11.6765 1.27882 11.6534 1.27882C11.6323 1.27882 11.6134 1.26377 11.6134 1.24872C11.6134 1.23066 11.5987 1.21861 11.5818 1.21861C11.565 1.21861 11.5103 1.19152 11.4598 1.16142C11.4114 1.1283 11.3251 1.08013 11.2661 1.05003C11.2093 1.02293 11.1525 0.986809 11.1399 0.971756C11.1293 0.959714 11.1083 0.947672 11.0936 0.947672C11.0788 0.947672 11.0199 0.920578 10.9652 0.884453C10.9105 0.848327 10.8473 0.812201 10.8242 0.797149C10.801 0.785108 10.74 0.745971 10.6916 0.709846C10.6411 0.67673 10.5864 0.646626 10.5716 0.646626C10.5485 0.646626 10.479 0.604479 10.3254 0.493092C10.3043 0.47804 10.2728 0.465998 10.2559 0.465998C10.2391 0.465998 10.2244 0.450946 10.2244 0.435893C10.2244 0.41783 10.2012 0.405788 10.1739 0.405788C10.1444 0.405788 10.1149 0.390737 10.1086 0.375684C10.1023 0.357621 10.077 0.345579 10.0539 0.345579C10.0329 0.345579 10.0139 0.330527 10.0139 0.315475C10.0139 0.297412 9.99918 0.28537 9.98234 0.28537C9.95077 0.28537 9.92973 0.273328 9.83081 0.201077C9.80345 0.180003 9.76346 0.164951 9.74242 0.164951C9.71927 0.164951 9.69401 0.149899 9.6877 0.134847C9.68139 0.116784 9.65403 0.104742 9.62667 0.104742C9.60141 0.104742 9.57195 0.0927 9.56142 0.0776482C9.5488 0.0625954 9.48776 0.041522 9.42463 0.02948C9.26047 -0.000623703 1.37035 -0.0126667 1.26933 0.0174389ZM9.47513 0.8694C9.66665 0.965735 9.90868 1.32097 9.90868 1.51063C9.90868 1.54675 9.9192 1.58589 9.92973 1.59492C9.95709 1.61901 9.95919 13.116 9.93183 13.1551C9.92131 13.1732 9.90868 13.2514 9.90237 13.3357C9.89605 13.417 9.88132 13.5615 9.86869 13.6518C9.85817 13.7422 9.83292 13.9649 9.81397 14.1486C9.79293 14.3292 9.76978 14.5459 9.75926 14.6302C9.75084 14.7115 9.7361 14.841 9.72769 14.9162C9.72137 14.9915 9.70033 15.0818 9.68349 15.1119C9.65403 15.1721 9.60562 15.1721 6.92437 15.1781C1.50925 15.1932 0.934696 15.1932 0.875768 15.1601C0.831571 15.136 0.816839 15.1029 0.806316 15.0156C0.793689 14.8891 0.755806 14.6031 0.741074 14.5098C0.73476 14.4767 0.722133 14.3683 0.71161 14.269C0.692668 14.0703 0.644263 13.6639 0.602171 13.3357C0.581125 13.1702 0.574811 11.9148 0.574811 7.32986V1.53471L0.63374 1.37516C0.728446 1.11626 0.861036 0.956704 1.05887 0.863379C1.10096 0.842306 2.52998 0.830264 5.25753 0.830264C8.66697 0.827253 9.40779 0.836286 9.47513 0.8694ZM10.8305 1.67319C10.9778 1.75749 11.1209 1.84178 11.1504 1.85683C11.1799 1.8749 11.2241 1.90199 11.2514 1.91403C11.2767 1.92908 11.3188 1.95317 11.3461 1.96822C11.4177 2.00736 11.4871 2.0495 11.5966 2.11874C11.6513 2.15487 11.7123 2.18196 11.7292 2.18196C11.746 2.18196 11.7607 2.19401 11.7607 2.21207C11.7607 2.22712 11.7755 2.24217 11.7923 2.24217C11.8091 2.24217 11.8407 2.25421 11.8617 2.26927C11.9144 2.3084 12.0301 2.38065 12.1396 2.43785C12.1922 2.46495 12.2763 2.51612 12.329 2.54924C12.4216 2.60945 12.4868 2.64859 12.571 2.69374C12.5941 2.70879 12.6468 2.7389 12.6867 2.76298C12.7267 2.78707 12.9183 2.89544 13.1098 3.00382C13.3013 3.1122 13.4991 3.22659 13.5517 3.25971C13.6022 3.29282 13.7201 3.36207 13.8127 3.41625C13.9053 3.46743 14.0147 3.53065 14.0547 3.55775C14.0947 3.58183 14.1473 3.61494 14.1705 3.62699C14.1936 3.63903 14.2484 3.67214 14.2925 3.69924C14.3346 3.72633 14.4062 3.76848 14.4504 3.79557C14.4925 3.82267 14.5472 3.85277 14.5704 3.86782C14.6293 3.89793 14.705 3.94309 14.7913 3.99727C14.8313 4.02437 14.926 4.07856 15.0018 4.11769C15.1512 4.19898 15.3911 4.34047 15.448 4.38261C15.469 4.39767 15.4943 4.40971 15.5069 4.40971C15.5174 4.40971 15.589 4.44884 15.6647 4.50002C15.7405 4.54819 15.81 4.59034 15.8205 4.59034C15.8289 4.59034 15.8647 4.6084 15.8984 4.63248C15.9615 4.67463 16.0941 4.75892 16.1762 4.80408C16.2014 4.81913 16.2435 4.84321 16.2709 4.85827C16.3508 4.90342 16.4834 4.98772 16.5466 5.02986C16.5802 5.05395 16.616 5.07201 16.6265 5.07201C16.635 5.07201 16.6897 5.0991 16.7444 5.13523C16.7991 5.17136 16.8623 5.21049 16.8854 5.22253C16.9086 5.23458 16.9612 5.26769 17.0012 5.29177C17.0411 5.31586 17.1885 5.40015 17.3274 5.47842C17.4663 5.55669 17.6136 5.64099 17.6536 5.66507C17.763 5.7313 17.8283 5.77044 17.8746 5.79452C17.8977 5.80656 17.9419 5.83065 17.9756 5.85172C18.0072 5.86978 18.0535 5.89688 18.0808 5.91193C18.1061 5.92698 18.1755 5.96913 18.2323 6.00525C18.3418 6.0745 18.4112 6.11664 18.4849 6.15578C18.548 6.18889 18.6491 6.2491 18.689 6.27921C18.7101 6.29426 18.7417 6.3063 18.7585 6.3063C18.7753 6.3063 18.7901 6.31834 18.7901 6.33641C18.7901 6.35146 18.8048 6.36651 18.8216 6.36651C18.8385 6.36651 18.87 6.37855 18.8911 6.3936C18.91 6.40866 18.95 6.43274 18.9795 6.4508C19.0089 6.46586 19.0889 6.51402 19.1584 6.55617C19.2278 6.59832 19.3709 6.6796 19.4762 6.7368C19.5814 6.794 19.7224 6.87829 19.7876 6.92044C19.8529 6.96258 19.9118 6.99871 19.916 6.99871C19.9223 6.99871 19.9728 7.0258 20.0276 7.06193C20.1707 7.15224 20.2022 7.1703 20.2906 7.21546C20.3369 7.23654 20.3811 7.27868 20.3938 7.3118C20.4085 7.35394 20.4148 8.5792 20.4127 11.1802C20.4106 13.2755 20.4106 15.0126 20.4106 15.0367C20.4106 15.1781 20.7031 15.1691 15.4396 15.1812C12.7267 15.1872 10.4727 15.2022 10.4306 15.2082C10.3843 15.2173 10.3506 15.2113 10.3506 15.1932C10.3506 15.1781 10.3338 15.1571 10.3107 15.148C10.2749 15.136 10.2728 15.1179 10.2917 14.9734C10.3022 14.8831 10.3191 14.7296 10.3296 14.6302C10.3401 14.5309 10.3675 14.287 10.3927 14.0884C10.4706 13.4592 10.479 13.3719 10.4959 13.11C10.5064 12.9685 10.5106 10.3042 10.5064 7.18536C10.5022 2.22411 10.5043 1.51966 10.5316 1.51966C10.5485 1.51966 10.6832 1.5889 10.8305 1.67319Z"
        fill="currentColor" />
    <path
        d="M1.69651 1.98027C1.66073 2.01941 1.65863 2.22111 1.65863 5.42725C1.65863 8.50094 1.66284 8.82908 1.6923 8.84714C1.7365 8.87122 8.70481 8.87122 8.7911 8.84714L8.85634 8.82607V5.41521V2.00435L8.75742 1.98328C8.67113 1.96221 2.67094 1.9592 2.16373 1.98027C2.06482 1.98328 1.92802 1.97425 1.85857 1.96221C1.76386 1.94414 1.72387 1.95016 1.69651 1.98027ZM4.95442 2.83524C4.97757 2.8804 4.98178 3.36207 4.98389 5.41521C4.98389 7.72424 4.98178 7.94701 4.94811 7.99819C4.91654 8.04937 4.84709 8.05238 3.59696 8.05238C2.80353 8.05238 2.26686 8.04034 2.24792 8.02227C2.22056 7.99819 2.21635 7.67908 2.21003 5.51757C2.20582 4.15383 2.21003 2.98275 2.21635 2.9105L2.22898 2.78406H3.57802C4.83867 2.78406 4.92917 2.78707 4.95442 2.83524ZM8.27968 2.83524C8.32177 2.91351 8.32177 7.92293 8.27968 7.99819C8.25443 8.04937 8.16393 8.05238 6.92432 8.05238C5.74575 8.05238 5.59422 8.04636 5.56476 8.00421C5.53529 7.96206 5.53108 7.69112 5.53108 5.46639C5.53108 4.09362 5.5374 2.92857 5.54371 2.87739L5.55844 2.78406H6.90538C8.16393 2.78406 8.25443 2.78707 8.27968 2.83524Z"
        fill="currentColor" />
    <path
        d="M2.24792 9.8165C2.01431 9.8737 1.83121 10.0032 1.66916 10.235C1.61654 10.3132 1.53236 10.4818 1.53236 10.5119C1.53236 10.524 1.51342 10.5691 1.49027 10.6113C1.46712 10.6534 1.44818 10.7166 1.44818 10.7528C1.44818 10.7889 1.43976 10.825 1.42924 10.834C1.39135 10.8702 1.35137 11.4181 1.38293 11.4632C1.39556 11.4813 1.40608 11.5355 1.40608 11.5806C1.40608 11.6288 1.4145 11.689 1.42503 11.7191C1.43555 11.7462 1.4608 11.8185 1.47764 11.8757C1.56603 12.1466 1.75334 12.4778 1.82069 12.4778C1.83542 12.4778 1.84805 12.4898 1.84805 12.5018C1.84805 12.5289 1.97012 12.6192 2.1006 12.6915C2.1469 12.7186 2.26265 12.7336 2.41629 12.7336C2.61623 12.7306 2.67936 12.7186 2.77407 12.6644C3.03925 12.5139 3.28338 12.1647 3.38651 11.7914C3.42649 11.6499 3.43491 11.5626 3.43491 11.2736C3.43702 10.9063 3.40966 10.7497 3.31074 10.5059C3.25181 10.3614 3.09397 10.0995 3.06661 10.0995C3.05398 10.0995 3.02662 10.0724 3.00137 10.0393C2.97611 10.0062 2.94244 9.97907 2.92771 9.97907C2.91297 9.97907 2.90035 9.96401 2.90035 9.94896C2.90035 9.9309 2.8814 9.91886 2.85825 9.91886C2.8351 9.91886 2.81616 9.90682 2.81616 9.89477C2.81616 9.8737 2.68568 9.83155 2.4689 9.78339C2.44575 9.77737 2.34684 9.79242 2.24792 9.8165ZM2.57203 10.6414C2.77407 10.7497 2.8793 10.9665 2.8793 11.2706C2.8793 11.5295 2.77197 11.7823 2.61833 11.8907C2.52573 11.96 2.29212 11.9479 2.22688 11.8757C2.19741 11.8425 2.16584 11.8155 2.15742 11.8155C2.12586 11.8155 2.04167 11.674 1.99748 11.5505C1.92171 11.3368 1.94697 11.0026 2.05219 10.837C2.14059 10.6956 2.28791 10.5902 2.40998 10.5842C2.43523 10.5812 2.50889 10.6083 2.57203 10.6414Z"
        fill="currentColor" />
    <path
        d="M7.91977 9.81952C7.80823 9.8406 7.62723 9.93091 7.58514 9.9851C7.56199 10.0152 7.53463 10.0393 7.52621 10.0393C7.49464 10.0393 7.27787 10.3674 7.21473 10.5119C7.11792 10.7287 7.08004 10.9454 7.08214 11.2886C7.08214 11.6981 7.12003 11.8546 7.30944 12.2279C7.34522 12.2971 7.39783 12.3724 7.4294 12.3995C7.46097 12.4266 7.49885 12.4657 7.51359 12.4868C7.53674 12.5199 7.59567 12.5621 7.80192 12.7005C7.87347 12.7487 8.30281 12.7427 8.39331 12.6915C8.76792 12.4868 9.01206 12.1195 9.10045 11.6318C9.13833 11.4271 9.13202 10.9123 9.09203 10.8009C9.08151 10.7708 9.05836 10.7046 9.04363 10.6564C8.97417 10.4337 8.85842 10.2289 8.73004 10.0995C8.69005 10.0604 8.65217 10.0182 8.64586 10.0092C8.61639 9.96101 8.43119 9.85565 8.33227 9.82855C8.22283 9.79845 8.04815 9.79544 7.91977 9.81952ZM8.29439 10.6715C8.40593 10.7528 8.45434 10.819 8.51748 10.9816C8.57009 11.117 8.57641 11.3669 8.5301 11.5234C8.49433 11.6499 8.34701 11.8757 8.3007 11.8757C8.28176 11.8757 8.26703 11.8877 8.26703 11.9058C8.26703 11.9238 8.20389 11.9359 8.11971 11.9359C7.96186 11.9359 7.86926 11.8847 7.75772 11.7312C7.67985 11.6288 7.60829 11.3518 7.62092 11.2073C7.65249 10.8551 7.88399 10.5661 8.11129 10.5932C8.1597 10.5992 8.24178 10.6354 8.29439 10.6715Z"
        fill="currentColor" />
    <path
        d="M11.687 4.74086C11.6639 4.7529 11.6218 4.80107 11.5923 4.84622L11.5397 4.92751V9.00368V13.0798L11.6197 13.1912L11.6975 13.3056H12.9687H14.2399L14.322 13.2123C14.3809 13.1431 14.4062 13.0859 14.4167 13.0016C14.4335 12.8571 14.4377 6.49897 14.4209 6.37253C14.4083 6.28824 14.3746 6.219 14.303 6.14073C14.2883 6.12266 14.2231 6.08654 14.1599 6.05342C14.0968 6.02332 14.0021 5.97214 13.9495 5.93902C13.8968 5.90591 13.8358 5.86978 13.8127 5.85473C13.7032 5.79452 13.659 5.76743 13.5748 5.70722C13.5243 5.6741 13.4738 5.644 13.4633 5.644C13.4444 5.644 13.2802 5.54465 13.2086 5.49046C13.1876 5.47541 13.156 5.46337 13.1392 5.46337C13.1224 5.46337 13.1076 5.44832 13.1076 5.43327C13.1076 5.4152 13.0929 5.40316 13.0761 5.40316C13.0592 5.40316 13.0277 5.39112 13.0066 5.37607C12.9877 5.36101 12.9456 5.33392 12.914 5.31586C12.8803 5.29779 12.8298 5.26769 12.7983 5.24963C12.7646 5.23156 12.7225 5.20447 12.7035 5.18942C12.6825 5.17437 12.6509 5.16232 12.6341 5.16232C12.6173 5.16232 12.6025 5.14727 12.6025 5.13222C12.6025 5.11416 12.5794 5.10211 12.552 5.10211C12.5225 5.10211 12.4931 5.08706 12.4868 5.07201C12.4805 5.05395 12.4552 5.04191 12.4321 5.04191C12.411 5.04191 12.3921 5.02685 12.3921 5.0118C12.3921 4.99374 12.3773 4.9817 12.3605 4.9817C12.3437 4.9817 12.2889 4.9546 12.2384 4.9245C11.9312 4.72581 11.7901 4.67764 11.687 4.74086ZM12.3437 5.85774C12.4152 5.90591 12.4889 5.94504 12.5057 5.94504C12.5247 5.94504 12.5394 5.95709 12.5394 5.97515C12.5394 5.9902 12.5541 6.00525 12.571 6.00525C12.5878 6.00525 12.6194 6.0173 12.6404 6.03235C12.6951 6.07449 12.8067 6.14073 12.9708 6.23104C13.0529 6.2762 13.1602 6.33942 13.2129 6.37253C13.2655 6.40565 13.3265 6.44478 13.3497 6.45682C13.5517 6.57122 13.779 6.71271 13.819 6.74583L13.8653 6.78798V9.61179C13.8653 11.7673 13.859 12.4446 13.84 12.4717C13.8064 12.5199 12.1795 12.5229 12.1164 12.4778C12.0764 12.4477 12.0764 12.3784 12.0764 9.10904C12.0764 7.27567 12.0806 5.76743 12.0869 5.7584C12.1079 5.72829 12.2132 5.77044 12.3437 5.85774Z"
        fill="currentColor" />
    <path
        d="M15.3237 6.86324C15.288 6.88733 15.2353 6.95055 15.208 7.00473L15.1596 7.10408V10.0694C15.1596 12.8872 15.1617 13.0377 15.1975 13.116C15.2816 13.2936 15.2901 13.2936 15.9677 13.3117C16.3108 13.3207 16.7591 13.3177 16.9653 13.3056L17.342 13.2846L17.4136 13.1822L17.4852 13.0768V10.5992V8.12463L17.4283 8.03431C17.361 7.93497 17.2894 7.87175 17.2431 7.87175C17.2263 7.87175 17.2116 7.8567 17.2116 7.84164C17.2116 7.82358 17.1926 7.81154 17.1695 7.81154C17.1463 7.81154 17.1274 7.79649 17.1274 7.78143C17.1274 7.76337 17.1084 7.75133 17.0853 7.75133C17.0621 7.75133 17.0264 7.73929 17.0053 7.72423C16.9864 7.70918 16.9464 7.6851 16.9169 7.66704C16.8874 7.65198 16.818 7.60683 16.7591 7.5707C16.7022 7.53458 16.6349 7.49243 16.6117 7.48039C16.5886 7.46835 16.5465 7.44426 16.517 7.42921C16.2792 7.28772 16.1887 7.23955 16.1761 7.23955C16.1677 7.23955 16.1066 7.20342 16.0393 7.16128C15.9719 7.11913 15.8857 7.06494 15.8499 7.04086C15.812 7.01678 15.7447 6.97764 15.7026 6.94753C15.6268 6.90238 15.5279 6.85722 15.4332 6.83314C15.41 6.82712 15.3616 6.83916 15.3237 6.86324ZM15.9909 7.99819C16.0772 8.04635 16.1824 8.10957 16.2224 8.13366C16.2624 8.15774 16.315 8.18785 16.3381 8.2029C16.3613 8.21494 16.4034 8.23902 16.4329 8.25408C16.4623 8.27214 16.5086 8.29923 16.5381 8.31429C16.6412 8.3745 16.717 8.41965 16.7528 8.44675C16.7738 8.4618 16.8033 8.47384 16.8201 8.47384C16.8369 8.47384 16.8706 8.50997 16.8938 8.55211C16.938 8.63038 16.938 8.65447 16.938 10.533C16.938 11.972 16.9316 12.4446 16.9127 12.4717C16.879 12.5199 15.8183 12.5229 15.7573 12.4778C15.7173 12.4477 15.7173 12.3874 15.7173 10.1567V7.86573L15.7762 7.88379C15.8078 7.89583 15.9046 7.94701 15.9909 7.99819Z"
        fill="currentColor" />
    <path
        d="M18.2976 8.59426C18.2155 8.63038 18.1376 8.74177 18.1376 8.82305C18.1376 8.86219 18.1292 8.90133 18.1166 8.91036C18.1018 8.9224 18.0955 9.62083 18.0955 10.9063C18.0955 13.0648 18.0955 13.0467 18.2176 13.2033C18.2786 13.2816 18.2807 13.2816 18.7353 13.3056C19.2741 13.3327 19.6824 13.3056 19.7539 13.2364C19.8655 13.134 19.8634 13.1581 19.8634 11.2826C19.8634 9.59975 19.8613 9.53955 19.8213 9.44321C19.7981 9.39203 19.7645 9.34688 19.7476 9.34688C19.7308 9.34688 19.7161 9.33182 19.7161 9.31677C19.7161 9.29871 19.6971 9.28667 19.674 9.28667C19.6508 9.28667 19.6319 9.27161 19.6319 9.25656C19.6319 9.2385 19.6171 9.22646 19.6003 9.22646C19.5835 9.22646 19.5519 9.21441 19.5309 9.19936C19.5119 9.18431 19.4677 9.15722 19.4319 9.13614C19.3983 9.11507 19.352 9.08798 19.333 9.07292C19.312 9.05787 19.2804 9.04583 19.2636 9.04583C19.2467 9.04583 19.232 9.03078 19.232 9.01572C19.232 8.99766 19.2131 8.98562 19.192 8.98562C19.1689 8.98562 19.1436 8.97057 19.1373 8.95551C19.131 8.93745 19.1015 8.92541 19.0721 8.92541C19.0447 8.92541 19.0215 8.91036 19.0215 8.89531C19.0215 8.87724 18.9984 8.8652 18.971 8.8652C18.9416 8.8652 18.9121 8.85015 18.9058 8.8351C18.8995 8.81703 18.8742 8.80499 18.8511 8.80499C18.83 8.80499 18.8111 8.78994 18.8111 8.77489C18.8111 8.75682 18.7963 8.74478 18.7795 8.74478C18.7627 8.74478 18.708 8.71769 18.6574 8.68758C18.5669 8.62737 18.4175 8.56114 18.3796 8.56716C18.3691 8.56716 18.3312 8.58222 18.2976 8.59426ZM18.8637 9.67803C19.0426 9.77436 19.2446 9.91585 19.272 9.96101C19.3078 10.0212 19.3078 12.4025 19.272 12.4657C19.253 12.4988 19.1878 12.5079 19.0005 12.5079C18.8637 12.5079 18.7374 12.4988 18.7185 12.4898C18.689 12.4747 18.6848 12.3182 18.6848 11.0327V9.59373L18.7543 9.62384C18.79 9.6419 18.8405 9.66598 18.8637 9.67803Z"
        fill="currentColor" />
</svg>